<svg xmlns="http://www.w3.org/2000/svg" viewBox="0 0 160 160" width="160" height="160">
<style>
  .frame {
    opacity: 0;
    fill: #000;
    shape-rendering: crispEdges;
  }

  .f0 { animation: f0_anim 3.5s infinite steps(1, end); }
  @keyframes f0_anim {
    0%, 17.6% { opacity: 1; }
    17.61%, 29.39% { opacity: 0; }
    29.4%, 32.3% { opacity: 1; }
    32.31%, 100% { opacity: 0; }
  }

  .f1 { animation: f1_anim 3.5s infinite steps(1, end); }
  @keyframes f1_anim {
    0%, 17.59% { opacity: 0; }
    17.6%, 20.5% { opacity: 1; }
    20.51%, 23.49% { opacity: 0; }
    23.5%, 26.4% { opacity: 1; }
    26.41%, 100% { opacity: 0; }
  }

  .f2 { animation: f2_anim 3.5s infinite steps(1, end); }
  @keyframes f2_anim {
    0%, 20.49% { opacity: 0; }
    20.5%, 23.5% { opacity: 1; }
    23.51%, 26.39% { opacity: 0; }
    26.4%, 29.4% { opacity: 1; }
    29.41%, 100% { opacity: 0; }
  }

  .f4 { animation: f4_anim 3.5s infinite steps(1, end); }
  @keyframes f4_anim {
    0%, 32.29% { opacity: 0; }
    32.3%, 38.2% { opacity: 1; }
    38.21%, 100% { opacity: 0; }
  }

  .f5 { animation: f5_anim 3.5s infinite steps(1, end); }
  @keyframes f5_anim {
    0%, 38.19% { opacity: 0; }
    38.2%, 44.1% { opacity: 1; }
    44.11%, 100% { opacity: 0; }
  }

  .f6 { animation: f6_anim 3.5s infinite steps(1, end); }
  @keyframes f6_anim {
    0%, 44.09% { opacity: 0; }
    44.1%, 52.9% { opacity: 1; }
    52.91%, 100% { opacity: 0; }
  }

  .f7 { animation: f7_anim 3.5s infinite steps(1, end); }
  @keyframes f7_anim {
    0%, 52.89% { opacity: 0; }
    52.9%, 55.8% { opacity: 1; }
    55.81%, 100% { opacity: 0; }
  }

  .f8 { animation: f8_anim 3.5s infinite steps(1, end); }
  @keyframes f8_anim {
    0%, 55.79% { opacity: 0; }
    55.8%, 58.8% { opacity: 1; }
    58.81%, 100% { opacity: 0; }
  }

  .f9 { animation: f9_anim 3.5s infinite steps(1, end); }
  @keyframes f9_anim {
    0%, 58.79% { opacity: 0; }
    58.8%, 61.7% { opacity: 1; }
    61.71%, 100% { opacity: 0; }
  }

  .f10 { animation: f10_anim 3.5s infinite steps(1, end); }
  @keyframes f10_anim {
    0%, 61.69% { opacity: 0; }
    61.7%, 67.6% { opacity: 1; }
    67.61%, 100% { opacity: 0; }
  }

  .f11 {
    opacity: 1;
    animation: f11_anim 3.5s infinite steps(1, end);
  }
  @keyframes f11_anim {
    0%, 67.59% { opacity: 0; }
    67.6%, 91.1% { opacity: 1; }
    91.11%, 94.09% { opacity: 0; }
    94.1%, 100% { opacity: 1; }
  }

  .f12 { animation: f12_anim 3.5s infinite steps(1, end); }
  @keyframes f12_anim {
    0%, 91.09% { opacity: 0; }
    91.1%, 94.1% { opacity: 1; }
    94.11%, 100% { opacity: 0; }
  }

  @media (prefers-reduced-motion: reduce) {
    .frame { animation: none !important; }
    .f11 { opacity: 1; }
  }
</style>
  <path class="frame f0" d="M 60 20 h 10 v 10 h -10 Z M 70 20 h 10 v 10 h -10 Z M 80 20 h 10 v 10 h -10 Z M 90 20 h 10 v 10 h -10 Z M 40 30 h 10 v 10 h -10 Z M 50 30 h 10 v 10 h -10 Z M 100 30 h 10 v 10 h -10 Z M 110 30 h 10 v 10 h -10 Z M 30 40 h 10 v 10 h -10 Z M 120 40 h 10 v 10 h -10 Z M 20 50 h 10 v 10 h -10 Z M 130 50 h 10 v 10 h -10 Z M 20 60 h 10 v 10 h -10 Z M 130 60 h 10 v 10 h -10 Z M 20 70 h 10 v 10 h -10 Z M 130 70 h 10 v 10 h -10 Z M 20 80 h 10 v 10 h -10 Z M 130 80 h 10 v 10 h -10 Z M 20 90 h 10 v 10 h -10 Z M 130 90 h 10 v 10 h -10 Z M 20 100 h 10 v 10 h -10 Z M 130 100 h 10 v 10 h -10 Z M 30 110 h 10 v 10 h -10 Z M 120 110 h 10 v 10 h -10 Z M 40 120 h 10 v 10 h -10 Z M 50 120 h 10 v 10 h -10 Z M 100 120 h 10 v 10 h -10 Z M 110 120 h 10 v 10 h -10 Z M 60 130 h 10 v 10 h -10 Z M 70 130 h 10 v 10 h -10 Z M 80 130 h 10 v 10 h -10 Z M 90 130 h 10 v 10 h -10 Z" />
  <path class="frame f1" d="M 70 20 h 10 v 10 h -10 Z M 80 20 h 10 v 10 h -10 Z M 90 20 h 10 v 10 h -10 Z M 100 20 h 10 v 10 h -10 Z M 50 30 h 10 v 10 h -10 Z M 60 30 h 10 v 10 h -10 Z M 110 30 h 10 v 10 h -10 Z M 120 30 h 10 v 10 h -10 Z M 40 40 h 10 v 10 h -10 Z M 130 40 h 10 v 10 h -10 Z M 30 50 h 10 v 10 h -10 Z M 140 50 h 10 v 10 h -10 Z M 20 60 h 10 v 10 h -10 Z M 130 60 h 10 v 10 h -10 Z M 20 70 h 10 v 10 h -10 Z M 130 70 h 10 v 10 h -10 Z M 30 80 h 10 v 10 h -10 Z M 130 80 h 10 v 10 h -10 Z M 30 90 h 10 v 10 h -10 Z M 130 90 h 10 v 10 h -10 Z M 30 100 h 10 v 10 h -10 Z M 130 100 h 10 v 10 h -10 Z M 30 110 h 10 v 10 h -10 Z M 120 110 h 10 v 10 h -10 Z M 40 120 h 10 v 10 h -10 Z M 50 120 h 10 v 10 h -10 Z M 100 120 h 10 v 10 h -10 Z M 110 120 h 10 v 10 h -10 Z M 60 130 h 10 v 10 h -10 Z M 70 130 h 10 v 10 h -10 Z M 80 130 h 10 v 10 h -10 Z M 90 130 h 10 v 10 h -10 Z" />
  <path class="frame f2" d="M 50 20 h 10 v 10 h -10 Z M 60 20 h 10 v 10 h -10 Z M 70 20 h 10 v 10 h -10 Z M 80 20 h 10 v 10 h -10 Z M 30 30 h 10 v 10 h -10 Z M 40 30 h 10 v 10 h -10 Z M 90 30 h 10 v 10 h -10 Z M 100 30 h 10 v 10 h -10 Z M 20 40 h 10 v 10 h -10 Z M 110 40 h 10 v 10 h -10 Z M 10 50 h 10 v 10 h -10 Z M 120 50 h 10 v 10 h -10 Z M 20 60 h 10 v 10 h -10 Z M 130 60 h 10 v 10 h -10 Z M 20 70 h 10 v 10 h -10 Z M 130 70 h 10 v 10 h -10 Z M 20 80 h 10 v 10 h -10 Z M 120 80 h 10 v 10 h -10 Z M 20 90 h 10 v 10 h -10 Z M 120 90 h 10 v 10 h -10 Z M 20 100 h 10 v 10 h -10 Z M 120 100 h 10 v 10 h -10 Z M 30 110 h 10 v 10 h -10 Z M 120 110 h 10 v 10 h -10 Z M 40 120 h 10 v 10 h -10 Z M 50 120 h 10 v 10 h -10 Z M 100 120 h 10 v 10 h -10 Z M 110 120 h 10 v 10 h -10 Z M 60 130 h 10 v 10 h -10 Z M 70 130 h 10 v 10 h -10 Z M 80 130 h 10 v 10 h -10 Z M 90 130 h 10 v 10 h -10 Z" />
  <path class="frame f3" d="M 60 20 h 10 v 10 h -10 Z M 70 20 h 10 v 10 h -10 Z M 80 20 h 10 v 10 h -10 Z M 90 20 h 10 v 10 h -10 Z M 40 30 h 10 v 10 h -10 Z M 50 30 h 10 v 10 h -10 Z M 100 30 h 10 v 10 h -10 Z M 110 30 h 10 v 10 h -10 Z M 30 40 h 10 v 10 h -10 Z M 120 40 h 10 v 10 h -10 Z M 20 50 h 10 v 10 h -10 Z M 130 50 h 10 v 10 h -10 Z M 20 60 h 10 v 10 h -10 Z M 130 60 h 10 v 10 h -10 Z M 20 70 h 10 v 10 h -10 Z M 130 70 h 10 v 10 h -10 Z M 20 80 h 10 v 10 h -10 Z M 130 80 h 10 v 10 h -10 Z M 20 90 h 10 v 10 h -10 Z M 130 90 h 10 v 10 h -10 Z M 20 100 h 10 v 10 h -10 Z M 130 100 h 10 v 10 h -10 Z M 30 110 h 10 v 10 h -10 Z M 120 110 h 10 v 10 h -10 Z M 40 120 h 10 v 10 h -10 Z M 50 120 h 10 v 10 h -10 Z M 100 120 h 10 v 10 h -10 Z M 110 120 h 10 v 10 h -10 Z M 60 130 h 10 v 10 h -10 Z M 70 130 h 10 v 10 h -10 Z M 80 130 h 10 v 10 h -10 Z M 90 130 h 10 v 10 h -10 Z" />
  <path class="frame f4" d="M 60 20 h 10 v 10 h -10 Z M 70 20 h 10 v 10 h -10 Z M 80 20 h 10 v 10 h -10 Z M 90 20 h 10 v 10 h -10 Z M 40 30 h 10 v 10 h -10 Z M 50 30 h 10 v 10 h -10 Z M 100 30 h 10 v 10 h -10 Z M 110 30 h 10 v 10 h -10 Z M 30 40 h 10 v 10 h -10 Z M 120 40 h 10 v 10 h -10 Z M 20 50 h 10 v 10 h -10 Z M 110 50 h 10 v 10 h -10 Z M 130 50 h 10 v 10 h -10 Z M 20 60 h 10 v 10 h -10 Z M 100 60 h 10 v 10 h -10 Z M 130 60 h 10 v 10 h -10 Z M 20 70 h 10 v 10 h -10 Z M 90 70 h 10 v 10 h -10 Z M 130 70 h 10 v 10 h -10 Z M 20 80 h 10 v 10 h -10 Z M 130 80 h 10 v 10 h -10 Z M 20 90 h 10 v 10 h -10 Z M 130 90 h 10 v 10 h -10 Z M 20 100 h 10 v 10 h -10 Z M 130 100 h 10 v 10 h -10 Z M 30 110 h 10 v 10 h -10 Z M 120 110 h 10 v 10 h -10 Z M 40 120 h 10 v 10 h -10 Z M 50 120 h 10 v 10 h -10 Z M 100 120 h 10 v 10 h -10 Z M 110 120 h 10 v 10 h -10 Z M 60 130 h 10 v 10 h -10 Z M 70 130 h 10 v 10 h -10 Z M 80 130 h 10 v 10 h -10 Z M 90 130 h 10 v 10 h -10 Z" />
  <path class="frame f5" d="M 60 20 h 10 v 10 h -10 Z M 70 20 h 10 v 10 h -10 Z M 80 20 h 10 v 10 h -10 Z M 90 20 h 10 v 10 h -10 Z M 40 30 h 10 v 10 h -10 Z M 50 30 h 10 v 10 h -10 Z M 100 30 h 10 v 10 h -10 Z M 110 30 h 10 v 10 h -10 Z M 30 40 h 10 v 10 h -10 Z M 120 40 h 10 v 10 h -10 Z M 20 50 h 10 v 10 h -10 Z M 110 50 h 10 v 10 h -10 Z M 130 50 h 10 v 10 h -10 Z M 20 60 h 10 v 10 h -10 Z M 100 60 h 10 v 10 h -10 Z M 130 60 h 10 v 10 h -10 Z M 20 70 h 10 v 10 h -10 Z M 90 70 h 10 v 10 h -10 Z M 130 70 h 10 v 10 h -10 Z M 20 80 h 10 v 10 h -10 Z M 100 80 h 10 v 10 h -10 Z M 130 80 h 10 v 10 h -10 Z M 20 90 h 10 v 10 h -10 Z M 110 90 h 10 v 10 h -10 Z M 130 90 h 10 v 10 h -10 Z M 20 100 h 10 v 10 h -10 Z M 120 100 h 10 v 10 h -10 Z M 130 100 h 10 v 10 h -10 Z M 30 110 h 10 v 10 h -10 Z M 120 110 h 10 v 10 h -10 Z M 40 120 h 10 v 10 h -10 Z M 50 120 h 10 v 10 h -10 Z M 100 120 h 10 v 10 h -10 Z M 110 120 h 10 v 10 h -10 Z M 60 130 h 10 v 10 h -10 Z M 70 130 h 10 v 10 h -10 Z M 80 130 h 10 v 10 h -10 Z M 90 130 h 10 v 10 h -10 Z" />
  <path class="frame f6" d="M 60 20 h 10 v 10 h -10 Z M 70 20 h 10 v 10 h -10 Z M 80 20 h 10 v 10 h -10 Z M 90 20 h 10 v 10 h -10 Z M 40 30 h 10 v 10 h -10 Z M 50 30 h 10 v 10 h -10 Z M 100 30 h 10 v 10 h -10 Z M 110 30 h 10 v 10 h -10 Z M 30 40 h 10 v 10 h -10 Z M 100 40 h 10 v 10 h -10 Z M 120 40 h 10 v 10 h -10 Z M 20 50 h 10 v 10 h -10 Z M 90 50 h 10 v 10 h -10 Z M 110 50 h 10 v 10 h -10 Z M 130 50 h 10 v 10 h -10 Z M 20 60 h 10 v 10 h -10 Z M 80 60 h 10 v 10 h -10 Z M 100 60 h 10 v 10 h -10 Z M 130 60 h 10 v 10 h -10 Z M 20 70 h 10 v 10 h -10 Z M 70 70 h 10 v 10 h -10 Z M 90 70 h 10 v 10 h -10 Z M 130 70 h 10 v 10 h -10 Z M 20 80 h 10 v 10 h -10 Z M 80 80 h 10 v 10 h -10 Z M 130 80 h 10 v 10 h -10 Z M 20 90 h 10 v 10 h -10 Z M 70 90 h 10 v 10 h -10 Z M 110 90 h 10 v 10 h -10 Z M 130 90 h 10 v 10 h -10 Z M 20 100 h 10 v 10 h -10 Z M 80 100 h 10 v 10 h -10 Z M 90 100 h 10 v 10 h -10 Z M 100 100 h 10 v 10 h -10 Z M 120 100 h 10 v 10 h -10 Z M 130 100 h 10 v 10 h -10 Z M 30 110 h 10 v 10 h -10 Z M 120 110 h 10 v 10 h -10 Z M 40 120 h 10 v 10 h -10 Z M 50 120 h 10 v 10 h -10 Z M 100 120 h 10 v 10 h -10 Z M 110 120 h 10 v 10 h -10 Z M 60 130 h 10 v 10 h -10 Z M 70 130 h 10 v 10 h -10 Z M 80 130 h 10 v 10 h -10 Z M 90 130 h 10 v 10 h -10 Z" />
  <path class="frame f7" d="M 30 0 h 10 v 10 h -10 Z M 120 0 h 10 v 10 h -10 Z M 10 20 h 10 v 10 h -10 Z M 60 20 h 10 v 10 h -10 Z M 70 20 h 10 v 10 h -10 Z M 80 20 h 10 v 10 h -10 Z M 140 20 h 10 v 10 h -10 Z M 40 30 h 10 v 10 h -10 Z M 100 30 h 10 v 10 h -10 Z M 90 40 h 10 v 10 h -10 Z M 20 50 h 10 v 10 h -10 Z M 60 60 h 10 v 10 h -10 Z M 70 60 h 10 v 10 h -10 Z M 80 60 h 10 v 10 h -10 Z M 40 70 h 10 v 10 h -10 Z M 50 70 h 10 v 10 h -10 Z M 90 70 h 10 v 10 h -10 Z M 100 70 h 10 v 10 h -10 Z M 30 80 h 10 v 10 h -10 Z M 110 80 h 10 v 10 h -10 Z M 140 80 h 10 v 10 h -10 Z M 20 90 h 10 v 10 h -10 Z M 120 90 h 10 v 10 h -10 Z M 30 100 h 10 v 10 h -10 Z M 110 100 h 10 v 10 h -10 Z M 40 110 h 10 v 10 h -10 Z M 50 110 h 10 v 10 h -10 Z M 90 110 h 10 v 10 h -10 Z M 100 110 h 10 v 10 h -10 Z M 60 120 h 10 v 10 h -10 Z M 70 120 h 10 v 10 h -10 Z M 80 120 h 10 v 10 h -10 Z M 130 130 h 10 v 10 h -10 Z M 20 140 h 10 v 10 h -10 Z M 100 140 h 10 v 10 h -10 Z" />
  <path class="frame f8" d="M 50 80 h 10 v 10 h -10 Z M 60 80 h 10 v 10 h -10 Z M 70 80 h 10 v 10 h -10 Z M 80 80 h 10 v 10 h -10 Z M 90 80 h 10 v 10 h -10 Z M 100 80 h 10 v 10 h -10 Z M 30 90 h 10 v 10 h -10 Z M 40 90 h 10 v 10 h -10 Z M 110 90 h 10 v 10 h -10 Z M 120 90 h 10 v 10 h -10 Z M 20 100 h 10 v 10 h -10 Z M 130 100 h 10 v 10 h -10 Z M 20 110 h 10 v 10 h -10 Z M 50 110 h 10 v 10 h -10 Z M 100 110 h 10 v 10 h -10 Z M 130 110 h 10 v 10 h -10 Z M 20 120 h 10 v 10 h -10 Z M 130 120 h 10 v 10 h -10 Z M 30 130 h 10 v 10 h -10 Z M 40 130 h 10 v 10 h -10 Z M 110 130 h 10 v 10 h -10 Z M 120 130 h 10 v 10 h -10 Z M 50 140 h 10 v 10 h -10 Z M 60 140 h 10 v 10 h -10 Z M 70 140 h 10 v 10 h -10 Z M 80 140 h 10 v 10 h -10 Z M 90 140 h 10 v 10 h -10 Z M 100 140 h 10 v 10 h -10 Z" />
  <path class="frame f9" d="M 60 30 h 10 v 10 h -10 Z M 70 30 h 10 v 10 h -10 Z M 80 30 h 10 v 10 h -10 Z M 90 30 h 10 v 10 h -10 Z M 50 40 h 10 v 10 h -10 Z M 100 40 h 10 v 10 h -10 Z M 40 50 h 10 v 10 h -10 Z M 110 50 h 10 v 10 h -10 Z M 30 60 h 10 v 10 h -10 Z M 60 60 h 10 v 10 h -10 Z M 90 60 h 10 v 10 h -10 Z M 120 60 h 10 v 10 h -10 Z M 30 70 h 10 v 10 h -10 Z M 120 70 h 10 v 10 h -10 Z M 30 80 h 10 v 10 h -10 Z M 120 80 h 10 v 10 h -10 Z M 40 90 h 10 v 10 h -10 Z M 110 90 h 10 v 10 h -10 Z M 50 100 h 10 v 10 h -10 Z M 100 100 h 10 v 10 h -10 Z M 60 110 h 10 v 10 h -10 Z M 70 110 h 10 v 10 h -10 Z M 80 110 h 10 v 10 h -10 Z M 90 110 h 10 v 10 h -10 Z" />
  <path class="frame f10" d="M 60 10 h 10 v 10 h -10 Z M 70 10 h 10 v 10 h -10 Z M 80 10 h 10 v 10 h -10 Z M 90 10 h 10 v 10 h -10 Z M 40 20 h 10 v 10 h -10 Z M 50 20 h 10 v 10 h -10 Z M 100 20 h 10 v 10 h -10 Z M 110 20 h 10 v 10 h -10 Z M 30 30 h 10 v 10 h -10 Z M 120 30 h 10 v 10 h -10 Z M 20 40 h 10 v 10 h -10 Z M 130 40 h 10 v 10 h -10 Z M 20 50 h 10 v 10 h -10 Z M 60 50 h 10 v 10 h -10 Z M 90 50 h 10 v 10 h -10 Z M 130 50 h 10 v 10 h -10 Z M 20 60 h 10 v 10 h -10 Z M 130 60 h 10 v 10 h -10 Z M 30 70 h 10 v 10 h -10 Z M 120 70 h 10 v 10 h -10 Z M 40 80 h 10 v 10 h -10 Z M 50 80 h 10 v 10 h -10 Z M 100 80 h 10 v 10 h -10 Z M 110 80 h 10 v 10 h -10 Z M 60 90 h 10 v 10 h -10 Z M 70 90 h 10 v 10 h -10 Z M 80 90 h 10 v 10 h -10 Z M 90 90 h 10 v 10 h -10 Z" />
  <path class="frame f11" d="M 60 40 h 10 v 10 h -10 Z M 70 40 h 10 v 10 h -10 Z M 80 40 h 10 v 10 h -10 Z M 90 40 h 10 v 10 h -10 Z M 40 50 h 10 v 10 h -10 Z M 50 50 h 10 v 10 h -10 Z M 100 50 h 10 v 10 h -10 Z M 110 50 h 10 v 10 h -10 Z M 30 60 h 10 v 10 h -10 Z M 120 60 h 10 v 10 h -10 Z M 20 70 h 10 v 10 h -10 Z M 130 70 h 10 v 10 h -10 Z M 20 80 h 10 v 10 h -10 Z M 60 80 h 10 v 10 h -10 Z M 90 80 h 10 v 10 h -10 Z M 130 80 h 10 v 10 h -10 Z M 20 90 h 10 v 10 h -10 Z M 130 90 h 10 v 10 h -10 Z M 20 100 h 10 v 10 h -10 Z M 130 100 h 10 v 10 h -10 Z M 30 110 h 10 v 10 h -10 Z M 120 110 h 10 v 10 h -10 Z M 40 120 h 10 v 10 h -10 Z M 50 120 h 10 v 10 h -10 Z M 100 120 h 10 v 10 h -10 Z M 110 120 h 10 v 10 h -10 Z M 60 130 h 10 v 10 h -10 Z M 70 130 h 10 v 10 h -10 Z M 80 130 h 10 v 10 h -10 Z M 90 130 h 10 v 10 h -10 Z" />
  <path class="frame f12" d="M 60 40 h 10 v 10 h -10 Z M 70 40 h 10 v 10 h -10 Z M 80 40 h 10 v 10 h -10 Z M 90 40 h 10 v 10 h -10 Z M 40 50 h 10 v 10 h -10 Z M 50 50 h 10 v 10 h -10 Z M 100 50 h 10 v 10 h -10 Z M 110 50 h 10 v 10 h -10 Z M 30 60 h 10 v 10 h -10 Z M 120 60 h 10 v 10 h -10 Z M 20 70 h 10 v 10 h -10 Z M 130 70 h 10 v 10 h -10 Z M 20 80 h 10 v 10 h -10 Z M 50 80 h 10 v 10 h -10 Z M 60 80 h 10 v 10 h -10 Z M 90 80 h 10 v 10 h -10 Z M 100 80 h 10 v 10 h -10 Z M 130 80 h 10 v 10 h -10 Z M 20 90 h 10 v 10 h -10 Z M 130 90 h 10 v 10 h -10 Z M 20 100 h 10 v 10 h -10 Z M 130 100 h 10 v 10 h -10 Z M 30 110 h 10 v 10 h -10 Z M 120 110 h 10 v 10 h -10 Z M 40 120 h 10 v 10 h -10 Z M 50 120 h 10 v 10 h -10 Z M 100 120 h 10 v 10 h -10 Z M 110 120 h 10 v 10 h -10 Z M 60 130 h 10 v 10 h -10 Z M 70 130 h 10 v 10 h -10 Z M 80 130 h 10 v 10 h -10 Z M 90 130 h 10 v 10 h -10 Z" />
</svg>
