<svg xmlns="http://www.w3.org/2000/svg" viewBox="0 0 160 160" width="100%" height="100%" role="img" aria-label="YAgent loading animation">
<style>

svg { shape-rendering: crispEdges; }
.ink { fill: var(--loader-ink, #090A0B); }
.shell { fill: var(--loader-shell, #FFFFFF); }
.accent { fill: var(--loader-accent, #FF3B30); }

.f-frame { opacity: 0; animation: 4s infinite step-end; transform-origin: center; }

@keyframes kf-egg_idle {
  0% { opacity: 1; }
  15% { opacity: 0; }
  20% { opacity: 1; }
  35% { opacity: 0; }
  40% { opacity: 1; }
  47.5% { opacity: 0; }
  100% { opacity: 0; }
}
@keyframes kf-egg_squash {
  0% { opacity: 0; }
  15% { opacity: 1; }
  20% { opacity: 0; }
  35% { opacity: 1; }
  40% { opacity: 0; }
  100% { opacity: 0; }
}
@keyframes kf-crack_1 {
  0% { opacity: 0; }
  47.5% { opacity: 1; }
  50% { opacity: 0; }
  52.5% { opacity: 1; }
  55% { opacity: 0; }
  100% { opacity: 0; }
}
@keyframes kf-crack_2 {
  0% { opacity: 0; }
  50% { opacity: 1; }
  52.5% { opacity: 0; }
  55% { opacity: 1; }
  57.5% { opacity: 0; }
  100% { opacity: 0; }
}
@keyframes kf-crack_3 {
  0% { opacity: 0; }
  57.5% { opacity: 1; }
  62.5% { opacity: 0; }
  100% { opacity: 0; }
}
@keyframes kf-burst_shell {
  0% { opacity: 0; }
  62.5% { opacity: 1; }
  67.5% { opacity: 0; }
  100% { opacity: 0; }
}
@keyframes kf-creat_jump {
  0% { opacity: 0; }
  62.5% { opacity: 1; }
  67.5% { opacity: 0; }
  100% { opacity: 0; }
}
@keyframes kf-creat_squat {
  0% { opacity: 0; }
  67.5% { opacity: 1; }
  72.5% { opacity: 0; }
  87.5% { opacity: 1; }
  90% { opacity: 0; }
  100% { opacity: 0; }
}
@keyframes kf-creat_idle {
  0% { opacity: 0; }
  72.5% { opacity: 1; }
  82.5% { opacity: 0; }
  85% { opacity: 1; }
  87.5% { opacity: 0; }
  90% { opacity: 1; }
  100% { opacity: 0; }
}
@keyframes kf-creat_blink {
  0% { opacity: 0; }
  82.5% { opacity: 1; }
  85% { opacity: 0; }
  100% { opacity: 0; }
}


.f-egg_idle { animation-name: kf-egg_idle; }
.f-egg_squash { animation-name: kf-egg_squash; }
.f-crack_1 { animation-name: kf-crack_1; }
.f-crack_2 { animation-name: kf-crack_2; }
.f-crack_3 { animation-name: kf-crack_3; }
.f-burst_shell { animation-name: kf-burst_shell; }
.f-creat_jump { animation-name: kf-creat_jump; }
.f-creat_squat { animation-name: kf-creat_squat; }
.f-creat_idle { animation-name: kf-creat_idle; }
.f-creat_blink { animation-name: kf-creat_blink; }

@media (prefers-reduced-motion: reduce) {
  .f-frame { animation: none !important; opacity: 0; }
  .f-creat_idle { opacity: 1 !important; }
}

</style>
<g class="f-frame f-egg_idle"><path class="ink" d="M60 20h40v10h-40ZM40 30h20v10h-20ZM100 30h20v10h-20ZM30 40h10v10h-10ZM120 40h10v10h-10ZM20 50h10v10h-10ZM130 50h10v10h-10ZM20 60h10v10h-10ZM130 60h10v10h-10ZM20 70h10v10h-10ZM130 70h10v10h-10ZM20 80h10v10h-10ZM130 80h10v10h-10ZM20 90h10v10h-10ZM130 90h10v10h-10ZM20 100h10v10h-10ZM130 100h10v10h-10ZM30 110h10v10h-10ZM120 110h10v10h-10ZM40 120h20v10h-20ZM100 120h20v10h-20ZM60 130h40v10h-40Z"/><path class="shell" d="M60 30h40v10h-40ZM40 40h80v10h-80ZM30 50h100v10h-100ZM30 60h100v10h-100ZM30 70h100v10h-100ZM30 80h100v10h-100ZM30 90h100v10h-100ZM30 100h100v10h-100ZM40 110h80v10h-80ZM60 120h40v10h-40Z"/></g><g class="f-frame f-egg_squash"><path class="ink" d="M60 30h40v10h-40ZM40 40h20v10h-20ZM100 40h20v10h-20ZM30 50h10v10h-10ZM120 50h10v10h-10ZM20 60h10v10h-10ZM130 60h10v10h-10ZM20 70h10v10h-10ZM130 70h10v10h-10ZM10 80h10v10h-10ZM140 80h10v10h-10ZM10 90h10v10h-10ZM140 90h10v10h-10ZM10 100h10v10h-10ZM140 100h10v10h-10ZM20 110h10v10h-10ZM130 110h10v10h-10ZM30 120h20v10h-20ZM110 120h20v10h-20ZM50 130h60v10h-60Z"/><path class="shell" d="M60 40h40v10h-40ZM40 50h80v10h-80ZM30 60h100v10h-100ZM30 70h100v10h-100ZM20 80h120v10h-120ZM20 90h120v10h-120ZM20 100h120v10h-120ZM30 110h100v10h-100ZM50 120h60v10h-60Z"/></g><g class="f-frame f-crack_1"><path class="ink" d="M60 20h40v10h-40ZM40 30h20v10h-20ZM100 30h20v10h-20ZM30 40h10v10h-10ZM120 40h10v10h-10ZM20 50h10v10h-10ZM90 50h10v10h-10ZM130 50h10v10h-10ZM20 60h10v10h-10ZM100 60h10v10h-10ZM130 60h10v10h-10ZM20 70h10v10h-10ZM90 70h10v10h-10ZM130 70h10v10h-10ZM20 80h10v10h-10ZM130 80h10v10h-10ZM20 90h10v10h-10ZM130 90h10v10h-10ZM20 100h10v10h-10ZM130 100h10v10h-10ZM30 110h10v10h-10ZM120 110h10v10h-10ZM40 120h20v10h-20ZM100 120h20v10h-20ZM60 130h40v10h-40Z"/><path class="shell" d="M60 30h40v10h-40ZM40 40h80v10h-80ZM30 50h60v10h-60ZM100 50h30v10h-30ZM30 60h70v10h-70ZM110 60h20v10h-20ZM30 70h60v10h-60ZM100 70h30v10h-30ZM30 80h100v10h-100ZM30 90h100v10h-100ZM30 100h100v10h-100ZM40 110h80v10h-80ZM60 120h40v10h-40Z"/></g><g class="f-frame f-crack_2"><path class="ink" d="M60 20h40v10h-40ZM40 30h20v10h-20ZM100 30h20v10h-20ZM30 40h10v10h-10ZM120 40h10v10h-10ZM20 50h10v10h-10ZM90 50h10v10h-10ZM130 50h10v10h-10ZM20 60h10v10h-10ZM100 60h10v10h-10ZM130 60h10v10h-10ZM20 70h10v10h-10ZM90 70h10v10h-10ZM130 70h10v10h-10ZM20 80h10v10h-10ZM100 80h10v10h-10ZM130 80h10v10h-10ZM20 90h10v10h-10ZM110 90h10v10h-10ZM130 90h10v10h-10ZM20 100h10v10h-10ZM120 100h20v10h-20ZM30 110h10v10h-10ZM120 110h10v10h-10ZM40 120h20v10h-20ZM100 120h20v10h-20ZM60 130h40v10h-40Z"/><path class="shell" d="M60 30h40v10h-40ZM40 40h80v10h-80ZM30 50h60v10h-60ZM100 50h30v10h-30ZM30 60h70v10h-70ZM110 60h20v10h-20ZM30 70h60v10h-60ZM100 70h30v10h-30ZM30 80h70v10h-70ZM110 80h20v10h-20ZM30 90h80v10h-80ZM120 90h10v10h-10ZM30 100h90v10h-90ZM40 110h80v10h-80ZM60 120h40v10h-40Z"/></g><g class="f-frame f-crack_3"><path class="ink" d="M60 20h40v10h-40ZM40 30h20v10h-20ZM100 30h20v10h-20ZM30 40h10v10h-10ZM120 40h10v10h-10ZM20 50h10v10h-10ZM90 50h10v10h-10ZM130 50h10v10h-10ZM20 60h10v10h-10ZM100 60h10v10h-10ZM130 60h10v10h-10ZM20 70h10v10h-10ZM90 70h10v10h-10ZM130 70h10v10h-10ZM20 80h10v10h-10ZM100 80h10v10h-10ZM130 80h10v10h-10ZM20 90h10v10h-10ZM110 90h10v10h-10ZM130 90h10v10h-10ZM20 100h10v10h-10ZM120 100h20v10h-20ZM30 110h10v10h-10ZM80 110h10v10h-10ZM120 110h10v10h-10ZM40 120h20v10h-20ZM70 120h10v10h-10ZM100 120h20v10h-20ZM60 130h40v10h-40Z"/><path class="shell" d="M60 30h40v10h-40ZM40 40h80v10h-80ZM30 50h60v10h-60ZM100 50h30v10h-30ZM30 60h70v10h-70ZM110 60h20v10h-20ZM30 70h60v10h-60ZM100 70h30v10h-30ZM30 80h70v10h-70ZM110 80h20v10h-20ZM30 90h80v10h-80ZM120 90h10v10h-10ZM30 100h90v10h-90ZM40 110h40v10h-40ZM90 110h30v10h-30ZM60 120h10v10h-10ZM80 120h20v10h-20Z"/></g><g class="f-frame f-burst_shell"><path class="ink" d="M30 10h30v10h-30ZM100 10h30v10h-30ZM20 20h10v10h-10ZM60 20h10v10h-10ZM90 20h10v10h-10ZM130 20h10v10h-10ZM30 30h30v10h-30ZM100 30h30v10h-30ZM20 60h20v10h-20ZM120 60h20v10h-20ZM10 70h10v10h-10ZM40 70h10v10h-10ZM110 70h10v10h-10ZM140 70h10v10h-10ZM20 80h20v10h-20ZM120 80h20v10h-20ZM40 110h20v10h-20ZM100 110h20v10h-20ZM30 120h10v10h-10ZM60 120h10v10h-10ZM90 120h10v10h-10ZM120 120h10v10h-10ZM40 130h20v10h-20ZM100 130h20v10h-20Z"/><path class="shell" d="M30 20h30v10h-30ZM100 20h30v10h-30ZM20 70h20v10h-20ZM120 70h20v10h-20ZM40 120h20v10h-20ZM100 120h20v10h-20Z"/></g><g class="f-frame f-creat_jump"><path class="ink" d="M60 10h40v10h-40ZM40 20h20v10h-20ZM100 20h20v10h-20ZM30 30h10v10h-10ZM120 30h10v10h-10ZM20 40h10v10h-10ZM130 40h10v10h-10ZM20 50h10v10h-10ZM50 50h10v10h-10ZM100 50h10v10h-10ZM130 50h10v10h-10ZM20 60h10v10h-10ZM130 60h10v10h-10ZM30 70h10v10h-10ZM120 70h10v10h-10ZM40 80h20v10h-20ZM100 80h20v10h-20ZM60 90h40v10h-40Z"/><path class="accent" d="M60 20h40v10h-40ZM40 30h80v10h-80ZM30 40h100v10h-100ZM30 50h20v10h-20ZM60 50h40v10h-40ZM110 50h20v10h-20ZM30 60h100v10h-100ZM40 70h80v10h-80ZM60 80h40v10h-40Z"/></g><g class="f-frame f-creat_squat"><path class="ink" d="M50 70h60v10h-60ZM30 80h20v10h-20ZM110 80h20v10h-20ZM20 90h10v10h-10ZM130 90h10v10h-10ZM20 100h10v10h-10ZM50 100h10v10h-10ZM100 100h10v10h-10ZM130 100h10v10h-10ZM20 110h10v10h-10ZM130 110h10v10h-10ZM30 120h20v10h-20ZM110 120h20v10h-20ZM50 130h60v10h-60Z"/><path class="accent" d="M50 80h60v10h-60ZM30 90h100v10h-100ZM30 100h20v10h-20ZM60 100h40v10h-40ZM110 100h20v10h-20ZM30 110h100v10h-100ZM50 120h60v10h-60Z"/></g><g class="f-frame f-creat_idle"><path class="ink" d="M60 30h40v10h-40ZM40 40h20v10h-20ZM100 40h20v10h-20ZM30 50h10v10h-10ZM120 50h10v10h-10ZM20 60h10v10h-10ZM130 60h10v10h-10ZM20 70h10v10h-10ZM50 70h10v10h-10ZM100 70h10v10h-10ZM130 70h10v10h-10ZM20 80h10v10h-10ZM130 80h10v10h-10ZM20 90h10v10h-10ZM130 90h10v10h-10ZM30 100h10v10h-10ZM120 100h10v10h-10ZM40 110h20v10h-20ZM100 110h20v10h-20ZM60 120h40v10h-40Z"/><path class="accent" d="M60 40h40v10h-40ZM40 50h80v10h-80ZM30 60h100v10h-100ZM30 70h20v10h-20ZM60 70h40v10h-40ZM110 70h20v10h-20ZM30 80h100v10h-100ZM30 90h100v10h-100ZM40 100h80v10h-80ZM60 110h40v10h-40Z"/></g><g class="f-frame f-creat_blink"><path class="ink" d="M60 30h40v10h-40ZM40 40h20v10h-20ZM100 40h20v10h-20ZM30 50h10v10h-10ZM120 50h10v10h-10ZM20 60h10v10h-10ZM130 60h10v10h-10ZM20 70h10v10h-10ZM40 70h20v10h-20ZM100 70h20v10h-20ZM130 70h10v10h-10ZM20 80h10v10h-10ZM130 80h10v10h-10ZM20 90h10v10h-10ZM130 90h10v10h-10ZM30 100h10v10h-10ZM120 100h10v10h-10ZM40 110h20v10h-20ZM100 110h20v10h-20ZM60 120h40v10h-40Z"/><path class="accent" d="M60 40h40v10h-40ZM40 50h80v10h-80ZM30 60h100v10h-100ZM30 70h10v10h-10ZM60 70h40v10h-40ZM120 70h10v10h-10ZM30 80h100v10h-100ZM30 90h100v10h-100ZM40 100h80v10h-80ZM60 110h40v10h-40Z"/></g>
</svg>